<?xml version="1.0" encoding="UTF-8" standalone="no"?>
<!-- Created with Inkscape (http://www.inkscape.org/) -->

<svg
   width="103.27154mm"
   height="103.27156mm"
   viewBox="0 0 103.27154 103.27156"
   version="1.1"
   id="svg1"
   xml:space="preserve"
   xmlns:xlink="http://www.w3.org/1999/xlink"
   xmlns="http://www.w3.org/2000/svg"
   xmlns:svg="http://www.w3.org/2000/svg"><defs
     id="defs1"><linearGradient
       id="linearGradient8"><stop
         style="stop-color:#ed2ea5;stop-opacity:1;"
         offset="0"
         id="stop8" /><stop
         style="stop-color:#fa8057;stop-opacity:1;"
         offset="0.5"
         id="stop10" /><stop
         style="stop-color:#fad009;stop-opacity:1;"
         offset="1"
         id="stop9" /></linearGradient><linearGradient
       xlink:href="#linearGradient8"
       id="linearGradient1"
       gradientUnits="userSpaceOnUse"
       gradientTransform="matrix(8.4858025,0,0,8.4858025,-1168.1578,-80.139967)"
       x1="170.52101"
       y1="30.101593"
       x2="170.65771"
       y2="42.267998" /><linearGradient
       xlink:href="#linearGradient8"
       id="linearGradient2"
       gradientUnits="userSpaceOnUse"
       gradientTransform="matrix(8.4858025,0,0,8.4858025,-1168.153,-80.139967)"
       x1="170.52101"
       y1="30.101593"
       x2="170.65771"
       y2="42.267998" /><linearGradient
       xlink:href="#linearGradient8"
       id="linearGradient3"
       gradientUnits="userSpaceOnUse"
       gradientTransform="matrix(8.4858025,0,0,8.4858025,-1168.1613,-80.139967)"
       x1="170.52101"
       y1="30.101593"
       x2="170.65771"
       y2="42.267998" /></defs><g
     id="layer1"
     transform="translate(-214.44439,-175.19651)"><path
       d="m 293.38396,184.90111 -10.56573,40.55635 h -6.31763 l -10.42048,-31.26141 -10.34788,31.26141 h -6.28131 l -10.67465,-40.55635 h 7.11644 l 7.4432,31.40669 10.12999,-31.40669 h 5.62781 l 10.38416,31.40669 7.04381,-31.40669 z"
       id="text7-3-1-3-5-7-0"
       style="font-size:2.32373px;-inkscape-font-specification:'sans-serif, Normal';letter-spacing:0.065355px;fill:url(#linearGradient1);stroke-width:1.37887"
       aria-label="w" /><path
       style="-inkscape-font-specification:'sans-serif, Normal';fill:url(#linearGradient2);fill-opacity:1;stroke-width:8.48579"
       d="m 237.90466,226.70799 11.03818,41.93178 h 7.82288 l 9.33107,-28.14237 9.3808,28.14237 h 7.856 l 10.92215,-41.93178 h -9.06589 l -6.19863,27.64515 -9.1488,-27.64515 h -7.12672 l -8.93325,27.67827 -6.56326,-27.67827 z m 2.90048,2.23744 h 4.64064 l 8.00515,33.79405 10.88909,-33.79405 h 3.87824 l 11.18736,33.8272 7.59082,-33.8272 h 4.35888 l -9.76199,37.45686 h -4.50806 l -11.00509,-33.03165 -10.93869,33.03165 h -4.47491 z"
       id="text7-9-3-9-9-5" /><path
       d="M 214.4444,175.1965 V 278.46806 H 317.71593 V 175.1965 Z m 2.23744,2.23744 h 98.79665 v 98.79661 h -98.79665 z"
       id="rect8-7-5-3-75-2"
       style="fill:url(#linearGradient3);fill-opacity:1;stroke-width:8.48579" /></g></svg>
